<?xml version="1.0" encoding="iso-8859-1"?>
<!-- Generator: Adobe Illustrator 19.0.0, SVG Export Plug-In . SVG Version: 6.00 Build 0)  -->
<svg version="1.1" id="Layer_1" xmlns="http://www.w3.org/2000/svg" xmlns:xlink="http://www.w3.org/1999/xlink" x="0px" y="0px"
	 viewBox="0 0 473.961 473.961" style="enable-background:new 0 0 473.961 473.961;" xml:space="preserve">
<path style="fill:#F2BE3E;" d="M0.004,236.973C0.004,106.09,106.101,0,236.984,0C367.86,0,473.958,106.094,473.958,236.973
	c0,130.887-106.098,236.988-236.973,236.988C106.105,473.961,0.004,367.864,0.004,236.973z"/>
<polygon style="fill:#BBBCBB;" points="141.917,218.118 234.56,266.57 326.906,218.118 390.329,184.648 390.329,161.745 
	78.495,161.745 78.495,184.648 "/>
<polygon style="fill:#D7D7D7;" points="234.41,101.843 78.495,167.028 78.495,182.882 390.329,182.882 390.329,167.028 "/>
<polygon style="fill:#BBBCBB;" points="234.41,84.223 78.495,159.983 78.495,175.837 234.56,103.493 390.329,175.837 
	390.329,159.983 "/>
<rect x="130.453" y="92.621" transform="matrix(-0.9875 0.1577 -0.1577 -0.9875 491.0102 325.2264)" style="fill:#E9E9EA;" width="204.299" height="178.944"/>
<g>
	
		<rect x="141.567" y="121.513" transform="matrix(-0.9875 0.1577 -0.1577 -0.9875 466.9336 216.5214)" style="fill:#818282;" width="166.619" height="10.544"/>
	
		<rect x="146.331" y="147.527" transform="matrix(-0.9875 0.1577 -0.1577 -0.9875 480.5027 267.4693)" style="fill:#818282;" width="166.619" height="10.541"/>
	
		<rect x="150.686" y="175.149" transform="matrix(-0.9875 0.1578 -0.1578 -0.9875 493.527 321.6548)" style="fill:#818282;" width="166.618" height="10.541"/>
	
		<rect x="155.452" y="207.864" transform="matrix(-0.9875 0.1577 -0.1577 -0.9875 433.8488 391.8475)" style="fill:#818282;" width="91.854" height="10.544"/>
</g>
<polygon style="fill:#E7E7E7;" points="390.329,352.017 78.495,352.017 78.495,184.386 234.418,268.333 390.329,184.386 "/>
<g>
	<polygon style="fill:#BBBCBB;" points="390.329,184.648 389.502,183.096 78.495,350.019 78.495,352.017 85.742,352.017 
		390.329,190.167 	"/>
	<polygon style="fill:#BBBCBB;" points="78.495,184.648 79.325,183.096 390.329,350.019 390.329,352.017 383.089,352.017 
		78.495,190.167 	"/>
</g>
<g>
</g>
<g>
</g>
<g>
</g>
<g>
</g>
<g>
</g>
<g>
</g>
<g>
</g>
<g>
</g>
<g>
</g>
<g>
</g>
<g>
</g>
<g>
</g>
<g>
</g>
<g>
</g>
<g>
</g>
</svg>
